<svg xmlns="http://www.w3.org/2000/svg" width="2732" height="2732" viewBox="0 0 2732 2732">
  <!-- Full screen splash with gradient background -->
  <defs>
    <linearGradient id="splashGradient" x1="0%" y1="0%" x2="100%" y2="100%">
      <stop offset="0%" style="stop-color:#10b981"/>
      <stop offset="100%" style="stop-color:#065f46"/>
    </linearGradient>
    <linearGradient id="iconWhite" x1="0%" y1="0%" x2="100%" y2="100%">
      <stop offset="0%" style="stop-color:#ffffff"/>
      <stop offset="100%" style="stop-color:#ecfdf5"/>
    </linearGradient>
  </defs>

  <!-- Full background -->
  <rect x="0" y="0" width="2732" height="2732" fill="url(#splashGradient)"/>

  <!-- Centered sprout icon (larger for splash) -->
  <g transform="translate(1046, 1046) scale(26.67)" fill="none" stroke="url(#iconWhite)" stroke-width="2.5" stroke-linecap="round" stroke-linejoin="round">
    <path d="M14 9.536V7a4 4 0 0 1 4-4h1.5a.5.5 0 0 1 .5.5V5a4 4 0 0 1-4 4 4 4 0 0 0-4 4c0 2 1 3 1 5a5 5 0 0 1-1 3"/>
    <path d="M4 9a5 5 0 0 1 8 4 5 5 0 0 1-8-4"/>
    <path d="M5 21h14"/>
  </g>

  <!-- App name text -->
  <text x="1366" y="1650" font-family="system-ui, -apple-system, sans-serif" font-size="120" font-weight="600" fill="white" text-anchor="middle">Grow Daisy</text>
</svg>
